<?xml version="1.0" encoding="UTF-8" standalone="no"?>
<svg
   width="24"
   height="24"
   viewBox="0 0 24 24"
   fill="none"
   stroke="currentColor"
   stroke-width="2"
   stroke-linecap="round"
   stroke-linejoin="round"
   class="lucide lucide-book-open-text-icon lucide-book-open-text"
   version="1.1"
   id="svg6"
   sodipodi:docname="icon.svg"
   inkscape:version="1.4.2 (f4327f4, 2025-05-13)"
   xmlns:inkscape="http://www.inkscape.org/namespaces/inkscape"
   xmlns:sodipodi="http://sodipodi.sourceforge.net/DTD/sodipodi-0.dtd"
   xmlns:xlink="http://www.w3.org/1999/xlink"
   xmlns="http://www.w3.org/2000/svg"
   xmlns:svg="http://www.w3.org/2000/svg">
  <defs
     id="defs6">
    <linearGradient
       id="linearGradient6"
       inkscape:collect="always">
      <stop
         style="stop-color:#31468c;stop-opacity:1;"
         offset="0"
         id="stop6" />
      <stop
         style="stop-color:#8c315a;stop-opacity:1;"
         offset="1"
         id="stop7" />
    </linearGradient>
    <linearGradient
       inkscape:collect="always"
       xlink:href="#linearGradient6"
       id="linearGradient7"
       x1="4.2218266"
       y1="4.2148046"
       x2="19.778179"
       y2="19.771156"
       gradientUnits="userSpaceOnUse" />
  </defs>
  <sodipodi:namedview
     id="namedview6"
     pagecolor="#ffffff"
     bordercolor="#000000"
     borderopacity="0.25"
     inkscape:showpageshadow="2"
     inkscape:pageopacity="0.0"
     inkscape:pagecheckerboard="0"
     inkscape:deskcolor="#d1d1d1"
     inkscape:zoom="48.625"
     inkscape:cx="12.010283"
     inkscape:cy="12"
     inkscape:window-width="1613"
     inkscape:window-height="1185"
     inkscape:window-x="1626"
     inkscape:window-y="1156"
     inkscape:window-maximized="0"
     inkscape:current-layer="svg6"
     inkscape:export-bgcolor="#ffffff00" />
  <path
     d="M3 18a1 1 0 0 1-1-1V4a1 1 0 0 1 1-1h5a4 4 0 0 1 4 4 4 4 0 0 1 4-4h5a1 1 0 0 1 1 1v13a1 1 0 0 1-1 1h-6a3 3 0 0 0-3 3 3 3 0 0 0-3-3z"
     id="path4"
     style="fill:url(#linearGradient7);fill-opacity:1" />
  <path
     d="M12 7v14"
     id="path1" />
  <path
     d="M16 12h2"
     id="path2" />
  <path
     d="M16 8h2"
     id="path3" />
  <path
     d="M6 12h2"
     id="path5" />
  <path
     d="M6 8h2"
     id="path6" />
</svg>
